+8_US_stride5.mot
nRows=135
nColumns=3

name +8_US_stride5.mot
datacolumns 3
datarows 135
range 2.320000 2.990000
endheader
time	soleus_l	med_gas_l
        2.3200000000	       34.4519444218	       37.0751210233	
        2.3250000000	       34.2655948717	       36.9924427692	
        2.3300000000	       34.0793230057	       36.8321849707	
        2.3350000000	       33.9067621305	       36.5516627323	
        2.3400000000	       33.8017302709	       36.2448380523	
        2.3450000000	       33.7369094370	       35.8976859760	
        2.3500000000	       33.6946420242	       35.3593533792	
        2.3550000000	       33.7044462451	       34.8234145930	
        2.3600000000	       33.7391319901	       34.3077992443	
        2.3650000000	       33.7992032320	       33.8425588890	
        2.3700000000	       33.8641548319	       33.4846473430	
        2.3750000000	       33.9184004117	       33.2527591946	
        2.3800000000	       33.9933728119	       32.9754636809	
        2.3850000000	       34.0725380754	       32.6769004591	
        2.3900000000	       34.1285942843	       32.3628640685	
        2.3950000000	       34.1522938799	       32.0202273351	
        2.4000000000	       34.1306074259	       31.7453959000	
        2.4050000000	       34.0690033115	       31.4259693866	
        2.4100000000	       33.9300955151	       31.0837364122	
        2.4150000000	       33.7378417369	       30.8056371523	
        2.4200000000	       33.4901585044	       30.5770415446	
        2.4250000000	       33.2159987003	       30.3946785869	
        2.4300000000	       32.9869618474	       30.2564492116	
        2.4350000000	       32.7651365280	       30.1205886025	
        2.4400000000	       32.4601982879	       29.9092781912	
        2.4450000000	       32.1455590661	       29.6652694075	
        2.4500000000	       31.8224021521	       29.4025321998	
        2.4550000000	       31.4907940701	       29.1355473827	
        2.4600000000	       31.1877747680	       28.9019324178	
        2.4650000000	       30.9561402405	       28.7319401458	
        2.4700000000	       30.6566084896	       28.5223246034	
        2.4750000000	       30.3182273204	       28.3016538441	
        2.4800000000	       29.9611237084	       28.0937599300	
        2.4850000000	       29.5516437245	       27.8934793955	
        2.4900000000	       29.0801982039	       27.7116262924	
        2.4950000000	       28.6708979687	       27.5864718204	
        2.5000000000	       28.2029412780	       27.4657822483	
        2.5050000000	       27.5711853649	       27.3237318377	
        2.5100000000	       26.9267779935	       27.1823060671	
        2.5150000000	       26.2664848747	       27.0241055206	
        2.5200000000	       25.7595125082	       26.8894067448	
        2.5250000000	       25.3116449430	       26.7598089755	
        2.5300000000	       24.7656289701	       26.5898046989	
        2.5350000000	       24.2635376778	       26.4227316100	
        2.5400000000	       23.8056038116	       26.2533914570	
        2.5450000000	       23.3944999877	       26.0693150144	
        2.5500000000	       23.0763603871	       25.8827055200	
        2.5550000000	       22.8717700742	       25.7227626813	
        2.5600000000	       22.6745229631	       25.5013985990	
        2.5650000000	       22.5620470762	       25.2572312259	
        2.5700000000	       22.5397992427	       25.0451508392	
        2.5750000000	       22.6235317299	       24.8944433530	
        2.5800000000	       22.8053819997	       24.8266950944	
        2.5850000000	       22.9988855486	       24.8433701357	
        2.5900000000	       23.2471084030	       24.8994116082	
        2.5950000000	       23.6065302450	       25.0404438202	
        2.6000000000	       24.0036548058	       25.2164506336	
        2.6050000000	       24.4094013181	       25.3956066435	
        2.6100000000	       24.8392581058	       25.5779357109	
        2.6150000000	       25.2045388513	       25.7319669814	
        2.6200000000	       25.4986953598	       25.8605767802	
        2.6250000000	       25.8971744759	       26.0597081759	
        2.6300000000	       26.3054419469	       26.3061678089	
        2.6350000000	       26.7241146495	       26.6051978324	
        2.6400000000	       27.1281840984	       26.9202333350	
        2.6450000000	       27.4565150234	       27.1788500423	
        2.6500000000	       27.9046236893	       27.5080539713	
        2.6550000000	       28.4373673127	       27.8523267440	
        2.6600000000	       28.9974513590	       28.1494295450	
        2.6650000000	       29.5677019021	       28.3820863966	
        2.6700000000	       30.0974706118	       28.5362107274	
        2.6750000000	       30.4814110804	       28.6095214230	
        2.6800000000	       30.8581760859	       28.6520083168	
        2.6850000000	       31.2923300494	       28.6746501121	
        2.6900000000	       31.6501107265	       28.6794109828	
        2.6950000000	       31.9625228341	       28.6913871052	
        2.7000000000	       32.2382618896	       28.7273577935	
        2.7050000000	       32.4459601811	       28.7883394723	
        2.7100000000	       32.6075148572	       28.8667224301	
        2.7150000000	       32.8451768180	       29.0095272808	
        2.7200000000	       33.1331789558	       29.1860809859	
        2.7250000000	       33.4916606385	       29.3723638271	
        2.7300000000	       33.9482877862	       29.5503339551	
        2.7350000000	       34.4699964512	       29.6934424068	
        2.7400000000	       34.8755394201	       29.7726428048	
        2.7450000000	       35.3534487125	       29.8357779633	
        2.7500000000	       35.8693150122	       29.8797638328	
        2.7550000000	       36.2458833533	       29.9028113577	
        2.7600000000	       36.4836599788	       29.9267622567	
        2.7650000000	       36.5532683516	       29.9699290511	
        2.7700000000	       36.5396956439	       30.0212079261	
        2.7750000000	       36.4744166521	       30.0808382714	
        2.7800000000	       36.3738064945	       30.1649961133	
        2.7850000000	       36.3477671988	       30.2324806211	
        2.7900000000	       36.4118787755	       30.2462035328	
        2.7950000000	       36.5850434975	       30.2394888655	
        2.8000000000	       36.8167741620	       30.1923040997	
        2.8050000000	       37.1970474267	       30.1120671353	
        2.8100000000	       37.6416084436	       30.0180858115	
        2.8150000000	       38.0634179048	       29.9382602996	
        2.8200000000	       38.4127803715	       29.8893095741	
        2.8250000000	       38.6568138605	       29.8714337234	
        2.8300000000	       38.7788363434	       29.8805999403	
        2.8350000000	       38.8226828918	       29.9057434282	
        2.8400000000	       38.8236078386	       29.9617312868	
        2.8450000000	       38.7349473009	       30.0406403164	
        2.8500000000	       38.6076297744	       30.1502970503	
        2.8550000000	       38.4640186812	       30.3140229279	
        2.8600000000	       38.3608974257	       30.4910212678	
        2.8650000000	       38.2832053108	       30.7015794375	
        2.8700000000	       38.2088902273	       31.0824824117	
        2.8750000000	       38.1737957996	       31.5244622608	
        2.8800000000	       38.1500191369	       32.0307624572	
        2.8850000000	       38.1178706154	       32.5737694073	
        2.8900000000	       38.0647505128	       33.0630817365	
        2.8950000000	       37.9996675950	       33.4236174250	
        2.9000000000	       37.8995537145	       33.8256455442	
        2.9050000000	       37.7814107954	       34.1985856763	
        2.9100000000	       37.6898446331	       34.4868500189	
        2.9150000000	       37.6456757463	       34.6974555839	
        2.9200000000	       37.6559722463	       34.8366301476	
        2.9250000000	       37.6947138025	       34.9964930802	
        2.9300000000	       37.7873164027	       35.2047823693	
        2.9350000000	       37.8776518087	       35.4581702266	
        2.9400000000	       37.9375338853	       35.7892467843	
        2.9450000000	       37.9208513253	       36.1929282658	
        2.9500000000	       37.8647000202	       36.5424473214	
        2.9550000000	       37.7495713908	       36.8620746069	
        2.9600000000	       37.5391337240	       37.2390655403	
        2.9650000000	       37.2777920763	       37.5199139923	
        2.9700000000	       36.9897814585	       37.6656841061	
        2.9750000000	       36.6687812053	       37.6849197048	
        2.9800000000	       36.3422979391	       37.6338475444	
        2.9850000000	       36.0704714627	       37.5367727838	
        2.9900000000	       35.6864089676	       37.3834995606	
